<?xml version="1.0" encoding="UTF-8"?>
<svg version="1.1" xmlns="http://www.w3.org/2000/svg" width="934" height="254">
<path d="M0 0 C308.22 0 616.44 0 934 0 C934 83.82 934 167.64 934 254 C625.78 254 317.56 254 0 254 C0 170.18 0 86.36 0 0 Z " fill="#FEFEFE" transform="translate(0,0)"/>
<path d="M0 0 C53.46 0 106.92 0 162 0 C162.7117838 28.47135194 163.3443654 56.93411402 163.67358398 85.41064453 C163.68260018 86.18812357 163.69161638 86.96560261 163.7009058 87.76664162 C163.73666555 90.86045482 163.77240529 93.95426701 163.80645943 97.04809952 C163.89898143 105.4263465 164.02542788 113.80023824 164.2613678 122.17596436 C164.36389942 125.91435183 164.43808597 129.65292851 164.50582886 133.39208984 C164.54294259 135.01813918 164.59411127 136.6439428 164.66091919 138.26904297 C164.96183749 145.65892663 165.0856109 151.52416066 160.296875 157.5859375 C158.88696213 159.07874968 157.45628148 160.55238585 156 162 C155.04641548 163.16622787 154.11008956 164.34698949 153.19921875 165.546875 C152.78551025 166.074021 152.37180176 166.60116699 151.94555664 167.14428711 C151.53039795 167.67417236 151.11523926 168.20405762 150.6875 168.75 C150.22657959 169.33724854 149.76565918 169.92449707 149.29077148 170.52954102 C147.40206805 172.93599589 145.51445001 175.34329816 143.62792969 177.75146484 C137.95195387 184.99682547 132.24046472 192.21136119 126.48291016 199.39208984 C121.27587637 205.89204375 116.13597476 212.44386425 111 219 C105.33610567 226.22507099 99.66853941 233.44588478 93.921875 240.60546875 C91.12847494 244.08586353 88.34829004 247.57680252 85.56640625 251.06640625 C84 253 84 253 83 254 C55.61 254 28.22 254 0 254 C0 170.18 0 86.36 0 0 Z " fill="#000000" transform="translate(0,0)"/>
<path d="M0 0 C12.87 0 25.74 0 39 0 C43.50014674 10.12533017 43.50014674 10.12533017 44.77661133 13.59375 C45.06876526 14.38312454 45.36091919 15.17249908 45.66192627 15.98579407 C45.96556091 16.81548203 46.26919556 17.64516998 46.58203125 18.5 C46.9134613 19.39812912 47.24489136 20.29625824 47.58636475 21.22160339 C48.66482458 24.14661164 49.73887364 27.07321451 50.8125 30 C51.56160317 32.0369257 52.31087293 34.07379015 53.06030273 36.1105957 C54.60374618 40.30699653 56.14517593 44.50413064 57.68554688 48.70166016 C59.57177237 53.83901754 61.467145 58.97293398 63.36653137 64.10543823 C64.76911673 67.89723047 66.16765882 71.69050537 67.5652771 75.48413086 C68.22844458 77.28190997 68.89317117 79.07911475 69.55947876 80.87573242 C70.48300807 83.36732755 71.40045961 85.86107803 72.31640625 88.35546875 C72.59055359 89.09081345 72.86470093 89.82615814 73.14715576 90.58378601 C74.22339262 93.53097217 75 95.83545993 75 99 C75.66 99 76.32 99 77 99 C77.15202881 98.4644751 77.30405762 97.9289502 77.46069336 97.37719727 C79.8648774 89.12761269 82.7067153 81.0383722 85.5625 72.9375 C85.97044296 71.77785736 85.97044296 71.77785736 86.3866272 70.5947876 C91.31734926 56.59365678 96.36992319 42.63694216 101.47164917 28.69729614 C102.28137212 26.48473901 103.08990755 24.27174693 103.89724731 22.05831909 C105.03529773 18.94093843 106.17884723 15.82563458 107.32421875 12.7109375 C107.66639435 11.77197128 108.00856995 10.83300507 108.3611145 9.86558533 C108.67982513 9.00292557 108.99853577 8.14026581 109.3269043 7.25146484 C109.60302048 6.49924652 109.87913666 5.7470282 110.16362 4.97201538 C111 3 111 3 113 0 C125.87 0 138.74 0 152 0 C152 46.53 152 93.06 152 141 C143.75 141 135.5 141 127 141 C126.67 104.7 126.34 68.4 126 31 C110.4928612 72.043167 110.4928612 72.043167 95.04370117 113.1081543 C93.80699706 116.40268149 92.56820937 119.69641831 91.32798576 122.98962212 C90.6495711 124.79273259 89.97337869 126.59667869 89.29725647 128.40065002 C88.89180099 129.47636765 88.48634552 130.55208527 88.06860352 131.66040039 C87.71572769 132.59944717 87.36285187 133.53849396 86.99928284 134.5059967 C86.11245688 136.71933089 85.06633095 138.8673381 84 141 C78.06 141 72.12 141 66 141 C63.74939062 134.95855973 61.49931868 128.91692081 59.25 122.875 C58.72761246 121.47190582 58.72761246 121.47190582 58.19467163 120.04046631 C53.6718129 107.89054719 49.15929497 95.73684877 44.66015625 83.578125 C44.21463409 82.37427155 43.76911194 81.17041809 43.31008911 79.93008423 C41.11926718 74.00965765 38.9295299 68.08883265 36.74121094 62.16748047 C35.92775917 59.96841531 35.1142837 57.76935891 34.30078125 55.5703125 C33.93984879 54.59257874 33.57891632 53.61484497 33.20704651 52.60748291 C30.53194526 45.37953281 27.76734613 38.19509993 25 31 C24.67 67.3 24.34 103.6 24 141 C16.08 141 8.16 141 0 141 C0 94.47 0 47.94 0 0 Z " fill="#030303" transform="translate(249,39)"/>
<path d="M0 0 C7.92 0 15.84 0 24 0 C24 49.83 24 99.66 24 151 C16.41 151 8.82 151 1 151 C0.67 146.71 0.34 142.42 0 138 C-0.9075 139.19625 -1.815 140.3925 -2.75 141.625 C-8.94168718 148.73724352 -19.08202666 153.42296405 -28.4453125 154.3359375 C-42.71667475 154.48743816 -54.13232583 150.72233856 -64.99609375 141.26171875 C-76.10989941 129.70237077 -79.46250432 114.90737425 -79.43164062 99.43823242 C-79.14114418 85.35969713 -73.94824861 74.50149098 -64.31640625 64.19921875 C-54.31051063 54.91317173 -42.93974914 51.45918611 -29.59765625 51.6875 C-18.08313269 52.68767577 -9.0372312 57.9627688 -1 66 C-0.67 44.22 -0.34 22.44 0 0 Z " fill="#020202" transform="translate(620,29)"/>
<path d="M0 0 C0.67546875 0.45761719 1.3509375 0.91523437 2.046875 1.38671875 C11.82053149 8.90637306 17.10164288 21.13526799 19 33 C19 38.94 19 44.88 19 51 C-5.09 51 -29.18 51 -54 51 C-49.81851613 62.49908063 -47.51305702 65.99196491 -37.75 72 C-28.88733301 74.36337786 -19.40590653 73.76175927 -11 70 C-9.66405268 69.00349483 -8.33028973 68.00404532 -7 67 C-6.34 67 -5.68 67 -5 67 C-4.01 65.02 -4.01 65.02 -3 63 C1.5 63 1.5 63 4.234375 65.40625 C4.80800781 65.90253906 5.38164062 66.39882812 5.97265625 66.91015625 C6.55917969 67.43480469 7.14570313 67.95945312 7.75 68.5 C8.35199219 69.02464844 8.95398438 69.54929687 9.57421875 70.08984375 C11.05716421 71.38447868 12.52962225 72.69110882 14 74 C9.42099993 83.9865811 0.14210728 88.16870263 -9.62109375 92.0390625 C-23.56927594 96.58230601 -39.65211672 94.89767874 -52.625 88.375 C-64.44625701 81.44941509 -72.33714583 72.28688232 -76.45703125 59.203125 C-80.28634124 43.66549312 -78.63967916 27.78770365 -70.33984375 13.98828125 C-62.87163575 2.90572186 -52.14238075 -4.31021597 -39.0625 -7.3125 C-25.49446485 -9.53817138 -11.47975212 -7.95257637 0 0 Z " fill="#050505" transform="translate(504,89)"/>
<path d="M0 0 C8.91 0 17.82 0 27 0 C31.25870554 10.53570917 35.44799607 21.08310611 39.4296875 31.7265625 C39.79539856 32.70332947 40.16110962 33.68009644 40.53790283 34.6864624 C42.03754159 38.69679069 43.53439079 42.70813089 45.02539062 46.72167969 C46.13453852 49.70428608 47.25035243 52.68432767 48.3671875 55.6640625 C48.70362274 56.57531891 49.04005798 57.48657532 49.38668823 58.42544556 C49.70106842 59.2616745 50.01544861 60.09790344 50.33935547 60.95947266 C50.61278778 61.6941275 50.88622009 62.42878235 51.16793823 63.18569946 C51.96128116 65.1932611 51.96128116 65.1932611 54 67 C54.18490494 66.45559265 54.36980988 65.9111853 54.56031799 65.35028076 C56.5229139 59.57250056 58.48682013 53.79516686 60.45141602 48.01806641 C61.17992768 45.87527206 61.90812876 43.73237209 62.63598633 41.58935547 C67.35342202 27.70075598 72.13393151 13.83728279 77 0 C85.25 0 93.5 0 102 0 C101.23209551 3.83952246 100.38668949 6.88612631 98.99389648 10.48266602 C98.57933701 11.55891739 98.16477753 12.63516876 97.73765564 13.74403381 C97.28669022 14.90229172 96.83572479 16.06054962 96.37109375 17.25390625 C95.66920677 19.06990578 95.66920677 19.06990578 94.95314026 20.92259216 C93.95941152 23.49321628 92.9630637 26.06280332 91.96459961 28.6315918 C90.70949492 31.86069119 89.45873805 35.09144936 88.20972538 38.32290936 C83.37986788 50.8174545 78.52655278 63.30183435 73.50950623 75.72267151 C71.65889775 80.31027157 69.89388689 84.91919947 68.1875 89.5625 C65.39903466 97.06311326 62.469725 104.5069559 59.5 111.9375 C58.82360474 113.66238647 58.82360474 113.66238647 58.13354492 115.42211914 C53.9061389 125.91087902 48.99413499 136.01534576 38.484375 141.25390625 C29.7879714 144.66356176 18.0259589 146.00865297 9 143 C8.81548975 128.21867882 8.81548975 128.21867882 10 122 C10.94101562 122.03480469 11.88203125 122.06960937 12.8515625 122.10546875 C14.09679687 122.13253906 15.34203125 122.15960938 16.625 122.1875 C18.46964844 122.23970703 18.46964844 122.23970703 20.3515625 122.29296875 C24.47128726 121.96215573 26.61410842 121.3720104 30 119 C31.76764013 116.60876559 33.00542914 114.06825133 34.25 111.375 C34.58773437 110.70082031 34.92546875 110.02664062 35.2734375 109.33203125 C36.27761193 107.24856699 37.16119875 105.15513423 38 103 C38.27803467 102.29770264 38.55606934 101.59540527 38.8425293 100.87182617 C41.06226376 93.80428661 38.44943837 88.95437911 35.3125 82.5625 C34.27260297 80.3291186 33.23490693 78.09471129 32.19921875 75.859375 C31.66345215 74.72048828 31.12768555 73.58160156 30.57568359 72.40820312 C28.12159 67.09999945 25.87474323 61.70972253 23.625 56.3125 C20.65468323 49.24011152 17.65615972 42.18139585 14.59375 35.1484375 C14.30486908 34.48460556 14.01598816 33.82077362 13.71835327 33.13682556 C12.31705518 29.91862997 10.91223208 26.70203269 9.50244141 23.48754883 C6.11677497 15.72620844 2.98823111 7.92267178 0 0 Z " fill="#030303" transform="translate(831,84)"/>
<path d="M0 0 C1.02351562 -0.00128906 2.04703125 -0.00257812 3.1015625 -0.00390625 C4.16890625 -0.00003906 5.23625 0.00382812 6.3359375 0.0078125 C7.41101563 0.00394531 8.48609375 0.00007813 9.59375 -0.00390625 C10.6146875 -0.00261719 11.635625 -0.00132813 12.6875 0 C13.62674316 0.00112793 14.56598633 0.00225586 15.53369141 0.00341797 C17.7109375 0.1328125 17.7109375 0.1328125 18.7109375 1.1328125 C18.72755981 2.6241516 18.6741295 4.11642055 18.58984375 5.60546875 C18.54150391 6.50458984 18.49316406 7.40371094 18.44335938 8.33007812 C18.38728516 9.27560547 18.33121094 10.22113281 18.2734375 11.1953125 C18.22123047 12.14470703 18.16902344 13.09410156 18.11523438 14.07226562 C17.98512392 16.42608202 17.85014638 18.77951949 17.7109375 21.1328125 C16.69773437 21.08640625 15.68453125 21.04 14.640625 20.9921875 C13.28909218 20.95464492 11.93752722 20.91824744 10.5859375 20.8828125 C9.92078125 20.84929688 9.255625 20.81578125 8.5703125 20.78125 C3.42957523 20.68045123 0.6568875 21.91018865 -3.2890625 25.1328125 C-6.67634861 29.80493128 -7.38490756 33.88311404 -7.60546875 39.5546875 C-7.66831055 41.09189453 -7.66831055 41.09189453 -7.73242188 42.66015625 C-7.77173828 43.72363281 -7.81105469 44.78710938 -7.8515625 45.8828125 C-7.91633789 47.50123047 -7.91633789 47.50123047 -7.98242188 49.15234375 C-8.08835151 51.81235461 -8.18919706 54.47256706 -8.2890625 57.1328125 C-1.0290625 57.1328125 6.2309375 57.1328125 13.7109375 57.1328125 C13.7109375 63.4028125 13.7109375 69.6728125 13.7109375 76.1328125 C6.4509375 76.1328125 -0.8090625 76.1328125 -8.2890625 76.1328125 C-8.2890625 101.5428125 -8.2890625 126.9528125 -8.2890625 153.1328125 C-16.2090625 153.1328125 -24.1290625 153.1328125 -32.2890625 153.1328125 C-32.2890625 127.7228125 -32.2890625 102.3128125 -32.2890625 76.1328125 C-38.2290625 76.1328125 -44.1690625 76.1328125 -50.2890625 76.1328125 C-50.2890625 69.8628125 -50.2890625 63.5928125 -50.2890625 57.1328125 C-44.3490625 57.1328125 -38.4090625 57.1328125 -32.2890625 57.1328125 C-32.34707031 55.5859375 -32.40507813 54.0390625 -32.46484375 52.4453125 C-32.85289203 37.64710339 -32.9985949 22.46288046 -22.75 10.6015625 C-16.55851314 4.37696608 -8.88939141 0.01064962 0 0 Z " fill="#020202" transform="translate(763.2890625,26.8671875)"/>
<path d="M0 0 C7.92 0 15.84 0 24 0 C24 49.83 24 99.66 24 151 C16.08 151 8.16 151 0 151 C0 101.17 0 51.34 0 0 Z " fill="#000000" transform="translate(795,29)"/>
<path d="M0 0 C8.01732775 5.12683008 12.84737207 11.1157613 15.66796875 20.30078125 C17.50667385 29.78849959 15.51037248 38.32174911 10.73828125 46.609375 C6.76085002 52.40164507 1.71722518 56.09686244 -4.94140625 58.31640625 C-21.25214576 59.5992734 -21.25214576 59.5992734 -28.1171875 54.91796875 C-35.23303817 48.67064804 -39.20386621 40.49518557 -40.32421875 31.109375 C-40.67777377 21.17447896 -38.58358992 13.09230898 -32.19140625 5.37890625 C-23.41520868 -3.60663181 -11.51989821 -6.06644181 0 0 Z " fill="#FBFBFB" transform="translate(604.94140625,103.68359375)"/>
<path d="M0 0 C23.76 0 47.52 0 72 0 C68.50718883 4.07494637 65.21424282 7.91064494 61.45092773 11.66259766 C60.60662704 12.50682281 59.76232635 13.35104797 58.8924408 14.22085571 C57.99852127 15.10961395 57.10460175 15.99837219 56.18359375 16.9140625 C55.24951187 17.84672943 54.31542999 18.77939636 53.3530426 19.74032593 C50.88634102 22.2032394 48.41665411 24.66313731 45.94628906 27.12237549 C43.43959349 29.6188293 40.93573051 32.11812051 38.43164062 34.6171875 C34.76251443 38.27839045 31.09188338 41.93807691 27.41967773 45.59619141 C26.64353119 46.36964905 25.86738464 47.14310669 25.06771851 47.94000244 C23.83057463 49.17252677 22.59296374 50.40458301 21.35440063 51.63568115 C18.96550763 54.01399975 16.69081092 56.43716458 14.5 59 C9.98566629 64.19684637 5.31422561 68.57147865 0 73 C0 48.91 0 24.82 0 0 Z " fill="#FEFEFE" transform="translate(0,0)"/>
<path d="M0 0 C7.92 0 15.84 0 24 0 C24 31.68 24 63.36 24 96 C16.08 96 8.16 96 0 96 C0 64.32 0 32.64 0 0 Z " fill="#020202" transform="translate(674,84)"/>
<path d="M0 0 C0.33 0 0.66 0 1 0 C1 16.17 1 32.34 1 49 C-16.16 49 -33.32 49 -51 49 C-51 42.4 -51 35.8 -51 29 C-48.08607422 29.17015625 -48.08607422 29.17015625 -45.11328125 29.34375 C-30.36188247 30.40308007 -30.36188247 30.40308007 -17.49609375 24.79296875 C-14.62938679 21.5125728 -12.36253894 17.91337267 -10.23046875 14.12255859 C-8.34416011 10.86867618 -6.05100343 7.96672265 -3.75 5 C-3.04359375 4.030625 -2.3371875 3.06125 -1.609375 2.0625 C-1.07828125 1.381875 -0.5471875 0.70125 0 0 Z " fill="#FDFDFD" transform="translate(51,205)"/>
<path d="M0 0 C4.21902177 3.60011569 6.83485728 7.52382921 8 13 C8 14.98 8 16.96 8 19 C-8.17 19 -24.34 19 -41 19 C-39.93480213 11.54361489 -38.69120043 7.07939926 -32.87890625 2.23046875 C-22.41431567 -5.02239251 -11.30976231 -6.64936025 0 0 Z " fill="#F9F9F9" transform="translate(491,103)"/>
<path d="M0 0 C2.8257111 2.52510353 4.69477054 4.37792343 5.41015625 8.1796875 C5.60138434 13.11836067 4.87965023 16.87250133 2 21 C-3.3451626 25.12022951 -7.26115959 26.45687054 -14 26 C-18.17049359 24.36451232 -21.10821038 22.42730622 -24 19 C-25.4611044 14.61668679 -25.73421471 10.57152553 -25 6 C-22.93422165 2.20118612 -20.26178177 -0.25587229 -16.5625 -2.4375 C-10.28637223 -3.81518658 -5.62241541 -3.12356412 0 0 Z " fill="#040404" transform="translate(696,40)"/>
<path d="M0 0 C9.24 0 18.48 0 28 0 C24.32750234 4.2845806 20.81271048 8.31480095 16.85546875 12.27734375 C15.93185547 13.20224609 15.00824219 14.12714844 14.05664062 15.08007812 C13.58589111 15.54873291 13.1151416 16.0173877 12.63012695 16.50024414 C11.16953741 17.95539571 9.71446797 19.41591857 8.25976562 20.87695312 C7.34259766 21.79283203 6.42542969 22.70871094 5.48046875 23.65234375 C4.64410889 24.48757568 3.80774902 25.32280762 2.94604492 26.18334961 C1 28 1 28 0 28 C0 18.76 0 9.52 0 0 Z " fill="#FAFAFA" transform="translate(102,0)"/>
<path d="M0 0 C0.66 0.66 1.32 1.32 2 2 C1.319375 2.495 0.63875 2.99 -0.0625 3.5 C-3.16355762 6.13919797 -5.65797083 8.97414042 -8.25390625 12.09765625 C-10.02401496 14.02616395 -11.86226235 15.4984381 -14 17 C-14.66 16.67 -15.32 16.34 -16 16 C-10.72 10.72 -5.44 5.44 0 0 Z " fill="#191919" transform="translate(119,11)"/>
<path d="M0 0 C0.99 0 1.98 0 3 0 C2.01 2.97 1.02 5.94 0 9 C-3 5.25 -3 5.25 -3 3 C-2.34 3 -1.68 3 -1 3 C-0.67 2.01 -0.34 1.02 0 0 Z " fill="#F0F0F0" transform="translate(885,144)"/>
<path d="M0 0 C0.99 0.99 1.98 1.98 3 3 C-2.625 7 -2.625 7 -6 7 C-4.02 4.69 -2.04 2.38 0 0 Z " fill="#E1E1E1" transform="translate(41,218)"/>
<path d="M0 0 C1.32 0.66 2.64 1.32 4 2 C0.535 4.97 0.535 4.97 -3 8 C-3 7.01 -3 6.02 -3 5 C-2.34 5 -1.68 5 -1 5 C-0.67 3.35 -0.34 1.7 0 0 Z " fill="#D7D7D7" transform="translate(3,65)"/>
<path d="M0 0 C0.33 0 0.66 0 1 0 C1 2.64 1 5.28 1 8 C-0.32 8.33 -1.64 8.66 -3 9 C-2.01 6.03 -1.02 3.06 0 0 Z " fill="#E2E2E2" transform="translate(375,68)"/>
<path d="M0 0 C0.66 0.66 1.32 1.32 2 2 C0.824375 2.928125 0.824375 2.928125 -0.375 3.875 C-2.96837647 5.89858661 -2.96837647 5.89858661 -5 8 C-5 5 -5 5 -2.5 2.3125 C-1.675 1.549375 -0.85 0.78625 0 0 Z " fill="#101010" transform="translate(119,11)"/>
</svg>
