<svg width="32" height="24" viewBox="0 0 32 24" fill="none" xmlns="http://www.w3.org/2000/svg">
<g clip-path="url(#clip0_26_246)">
<rect width="32" height="24" fill="white"/>
<path fill-rule="evenodd" clip-rule="evenodd" d="M0 -0.799988V23.2H32V-0.799988H0Z" fill="#F7FCFF"/>
<mask id="mask0_26_246" style="mask-type:luminance" maskUnits="userSpaceOnUse" x="0" y="-1" width="32" height="25">
<path fill-rule="evenodd" clip-rule="evenodd" d="M0 -0.799988V23.2H32V-0.799988H0Z" fill="white"/>
</mask>
<g mask="url(#mask0_26_246)">
<path fill-rule="evenodd" clip-rule="evenodd" d="M16.0001 17.4194C19.2028 17.4194 21.7991 14.6622 21.7991 11.2609C21.7991 7.85963 19.2028 5.10236 16.0001 5.10236C12.7974 5.10236 10.201 7.85963 10.201 11.2609C10.201 14.6622 12.7974 17.4194 16.0001 17.4194Z" fill="#3D58DB"/>
<mask id="mask1_26_246" style="mask-type:luminance" maskUnits="userSpaceOnUse" x="10" y="5" width="12" height="13">
<path fill-rule="evenodd" clip-rule="evenodd" d="M16.0001 17.4194C19.2028 17.4194 21.7991 14.6622 21.7991 11.2609C21.7991 7.85963 19.2028 5.10236 16.0001 5.10236C12.7974 5.10236 10.201 7.85963 10.201 11.2609C10.201 14.6622 12.7974 17.4194 16.0001 17.4194Z" fill="white"/>
</mask>
<g mask="url(#mask1_26_246)">
<path fill-rule="evenodd" clip-rule="evenodd" d="M22.002 11.7326C22.002 11.7326 21.6765 8.82869 19.2659 8.67105C16.8552 8.5134 16.2052 10.8006 16.0661 11.4066C15.927 12.0126 15.5749 13.6291 13.0368 13.6291C10.4986 13.6291 10.2697 9.51865 10.2697 9.51865V4.67181H22.002V11.7326Z" fill="#E31D1C"/>
</g>
<path d="M11.2252 4.7746L7.12561 9.69159L6.21057 8.86444L10.3102 3.94745L11.2252 4.7746ZM9.72327 3.41913L5.63538 8.29901L4.72034 7.47186L8.80823 2.591L9.72327 3.41913ZM8.21448 2.07928L3.97424 7.03143L3.0592 6.20428L7.29944 1.25214L8.21448 2.07928Z" fill="#272727"/>
<path d="M24.2494 7.83972L25.8373 9.70203L26.7523 8.87781L25.1654 7.0155L24.2494 7.83972ZM22.9955 3.03113L27.4144 8.41199L28.3295 7.58777L23.9105 2.20691L22.9955 3.03113ZM27.2699 5.15613L28.8578 7.01941L29.7728 6.19421L28.1859 4.33191L27.2699 5.15613ZM21.4281 4.41296L23.016 6.27527L23.931 5.45105L22.3431 3.58875L21.4281 4.41296ZM24.4486 1.72937L26.0365 3.59265L26.9515 2.76843L25.3636 0.905151L24.4486 1.72937Z" fill="#272727"/>
<path d="M26.4094 19.4279L24.8088 21.298L23.886 20.4699L25.4866 18.5998L26.4094 19.4279ZM24.8899 18.006L23.219 20.0021L22.2961 19.175L23.967 17.1779L24.8899 18.006ZM23.3635 16.7346L21.7629 18.6047L20.8401 17.7766L22.4407 15.9064L23.3635 16.7346ZM28.969 16.0607L27.3684 17.9308L26.4456 17.1027L28.0461 15.2326L28.969 16.0607ZM27.6311 14.6779L25.9602 16.675L25.0374 15.8478L26.7083 13.8508L27.6311 14.6779ZM26.0549 13.4435L24.4543 15.3137L23.5315 14.4855L25.1321 12.6154L26.0549 13.4435Z" fill="#272727"/>
<path d="M3.3938 16.7157L7.50024 21.4598L8.41528 20.6346L4.30981 15.8905L3.3938 16.7157ZM7.35962 18.1835L9.08521 20.079L10.0002 19.2538L8.27466 17.3583L7.35962 18.1835ZM6.40649 14.0897L10.4915 18.7704L11.4065 17.9452L7.32153 13.2645L6.40649 14.0897ZM4.96021 15.3524L6.4563 17.1063L7.37134 16.2811L5.87622 14.5272L4.96021 15.3524Z" fill="#272727"/>
</g>
</g>
<defs>
<clipPath id="clip0_26_246">
<rect width="32" height="24" fill="white"/>
</clipPath>
</defs>
</svg>
