<svg width="32" height="24" viewBox="0 0 32 24" fill="none" xmlns="http://www.w3.org/2000/svg">
<g clip-path="url(#clip0_19_104)">
<rect width="32" height="24" fill="white"/>
<path fill-rule="evenodd" clip-rule="evenodd" d="M0 0V24H32V0H0Z" fill="#F7FCFF"/>
<mask id="mask0_19_104" style="mask-type:luminance" maskUnits="userSpaceOnUse" x="0" y="0" width="32" height="24">
<path fill-rule="evenodd" clip-rule="evenodd" d="M0 0V24H32V0H0Z" fill="white"/>
</mask>
<g mask="url(#mask0_19_104)">
<path fill-rule="evenodd" clip-rule="evenodd" d="M0 0V12H32V0H0Z" fill="#E31D1C"/>
<path d="M3.85095 6.3739C3.85101 2.15844 7.4952 1.84752 8.86853 2.19519C8.86853 2.19519 6.04242 3.2949 6.04236 6.3739C6.04236 9.45298 8.86853 10.5897 8.86853 10.5897C7.44013 11.3847 3.85095 10.5895 3.85095 6.3739ZM10.7894 8.37195H11.7025L11.0287 9.12585L11.2318 10.0809L10.4027 9.59167L9.59216 10.0809L9.77771 9.12585L9.10193 8.41101L10.016 8.37195L10.4027 7.48035L10.7894 8.37195ZM13.7357 8.31726H14.6488L13.975 9.07117L14.1781 10.0262L13.349 9.53699L12.5385 10.0262L12.724 9.07117L12.0482 8.35632L12.9623 8.31726L13.349 7.42566L13.7357 8.31726ZM9.75623 6.00378H10.6693L9.99548 6.75671L10.1986 7.71179L9.36951 7.22253L8.55896 7.71179L8.74451 6.75671L8.06873 6.04285L8.98279 6.00378L9.36951 5.11218L9.75623 6.00378ZM15.1146 5.95984H16.0277L15.3539 6.71277L15.557 7.66785L14.7279 7.17859L13.9174 7.66785L14.1029 6.71277L13.4271 5.9989L14.3412 5.95984L14.7279 5.06824L15.1146 5.95984ZM12.4847 4.0614H13.3969L12.723 4.81531L12.9261 5.76941L12.098 5.28015L11.2875 5.76941L11.472 4.81531L10.7972 4.10046L11.7113 4.0614L12.098 3.1698L12.4847 4.0614Z" fill="#F1F9FF"/>
</g>
</g>
<defs>
<clipPath id="clip0_19_104">
<rect width="32" height="24" fill="white"/>
</clipPath>
</defs>
</svg>
